<?xml version="1.0" encoding="UTF-8" standalone="no"?>
<svg
   xmlns:dc="http://purl.org/dc/elements/1.1/"
   xmlns:cc="http://creativecommons.org/ns#"
   xmlns:rdf="http://www.w3.org/1999/02/22-rdf-syntax-ns#"
   xmlns:svg="http://www.w3.org/2000/svg"
   xmlns="http://www.w3.org/2000/svg"
   xmlns:sodipodi="http://sodipodi.sourceforge.net/DTD/sodipodi-0.dtd"
   xmlns:inkscape="http://www.inkscape.org/namespaces/inkscape"
   width="29.618996"
   height="24.000124"
   version="1.1"
   id="svg4"
   sodipodi:docname="seach-tt.svg"
   inkscape:version="0.92.2 (5c3e80d, 2017-08-06)">
  <metadata
     id="metadata10">
    <rdf:RDF>
      <cc:Work
         rdf:about="">
        <dc:format>image/svg+xml</dc:format>
        <dc:type
           rdf:resource="http://purl.org/dc/dcmitype/StillImage" />
        <dc:title></dc:title>
      </cc:Work>
    </rdf:RDF>
  </metadata>
  <defs
     id="defs8">
    <style
       id="style2110">.cls-1{fill:#231f20;}</style>
  </defs>
  <sodipodi:namedview
     pagecolor="#ffffff"
     bordercolor="#666666"
     borderopacity="1"
     objecttolerance="10"
     gridtolerance="10"
     guidetolerance="10"
     inkscape:pageopacity="0"
     inkscape:pageshadow="2"
     inkscape:window-width="1920"
     inkscape:window-height="1017"
     id="namedview6"
     showgrid="false"
     showguides="false"
     fit-margin-top="0"
     fit-margin-left="0"
     fit-margin-right="0"
     fit-margin-bottom="0"
     inkscape:zoom="5.6568542"
     inkscape:cx="-28.915777"
     inkscape:cy="-2.8128327"
     inkscape:window-x="-8"
     inkscape:window-y="-8"
     inkscape:window-maximized="1"
     inkscape:current-layer="g2205" />
  <g
     id="g2194"
     transform="translate(-96.089707,1.5765406)">
    <path
       id="path2150"
       d="m 35.77,46.18 c -100.047353,186.59959 -50.023677,93.2998 0,0 z"
       class="cls-1"
       inkscape:connector-curvature="0"
       style="fill:#231f20"
       sodipodi:nodetypes="cc" />
    <g
       id="g2211"
       transform="matrix(0.58335381,0,0,0.58335101,46.195601,4.342948)"
       style="fill:#ffffff">
      <g
         id="g2205"
         style="fill:#ffffff">
        <path
           d="m 122.13396,19.070133 c 4.76164,-8.830312 1.49029,-19.84889788 -7.31353,-24.6482184 -8.80337,-4.7990916 -19.824146,-1.5723372 -24.66644,7.2122147 -3.378368,6.1287636 -2.863664,13.3559717 0.730506,18.8233957 1.557472,2.369233 3.693214,4.408003 6.34102,5.883743 8.758504,4.881529 19.821764,1.764642 24.745824,-6.97613 l 9.1883,5.064861 m -7.47503,-6.621022 9.41735,5.191124 -2.11433,3.835653 -9.41734,-5.191133"
           id="path2"
           inkscape:connector-curvature="0"
           style="fill:none;stroke:#ffffff;stroke-width:4.71316147;stroke-linecap:round;stroke-miterlimit:4;stroke-dasharray:none"
           sodipodi:nodetypes="csssscccccc" />
        <path
           id="path2134"
           d="m 118.44732,3.0693245 a 0.08814357,0.09398111 0 0 0 -0.0588,0.024373 0.09140814,0.09746189 0 0 0 0,0.1113891 0.08161441,0.08701955 0 0 0 0.0849,0.034813 0.16322882,0.17403911 0 0 0 0.0457,-0.034813 v -0.059163 a 0.47989272,0.51167496 0 0 1 0,-0.052214 0.10120187,0.10790425 0 0 1 -0.0424,0 0.12731848,0.1357505 0 0 1 -0.0294,-0.024373 z"
           class="cls-1"
           inkscape:connector-curvature="0"
           style="fill:#ffffff;stroke-width:0.3370946" />
        <path
           style="fill:#ffffff;stroke:#333333;stroke-width:0.3370946"
           d="m 118.00889,3.9885458 c -0.40149,-0.9003592 -1.55672,-0.777972 -2.29531,-0.4552588 -0.80711,0.5266511 -1.86756,0.773162 -2.34574,1.6945828 -0.43615,0.561922 -0.9094,2.0336277 -1.48295,1.9302193 -0.62587,-1.3398832 -1.28541,-2.8855534 -2.78263,-3.426276 -1.10706,-0.7034975 -2.36232,-1.1018521 -3.59963,-1.505907 -1.67122,-0.4609485 -3.34004,0.2894757 -4.74712,1.1366397 -0.922165,0.3966767 -1.787169,0.9319579 -2.384296,1.7591669 -0.64399,0.7299999 -1.241521,1.5394455 -1.287555,2.5382112 -0.499464,0.9171223 -1.858021,1.5346158 -1.625182,2.7348271 0.785508,1.032986 -0.919201,1.806168 -1.28448,2.74385 -0.305803,0.560272 -1.690881,1.778523 -0.30664,1.845728 -0.161011,1.140482 1.24837,0.693255 1.860808,0.529082 0.894307,0.0908 1.353929,-0.895616 1.746916,-1.632273 0.883427,0.760593 2.059162,1.167873 3.231259,1.306509 0.63822,0.235801 1.98467,-0.222559 2.16422,-0.0045 -0.65062,0.772719 -0.82486,1.890133 -0.0915,2.672191 0.65428,0.549575 1.45094,1.053474 2.27332,0.572526 0.86678,-0.369153 0.96476,-1.207712 0.98207,-1.990558 0.25441,-1.012792 1.19849,-1.566008 1.8254,-2.326698 0.98339,-0.449973 2.13221,0.123383 3.05859,-0.52899 0.50238,-0.208352 1.02586,-1.348902 1.40837,-0.722012 -0.0892,0.85905 -0.24925,2.000917 0.63283,2.508556 0.76301,0.182927 1.62151,0.0591 2.18989,-0.495268 0.90225,-0.726171 -0.35947,-1.686502 0.243,-2.573865 0.38311,-0.861526 -0.21309,-1.787977 -0.83068,-2.3688322 -0.42989,-0.3291567 -1.23299,-0.1217743 -0.39169,-0.664508 1.02415,-1.0851987 2.27306,-1.9166363 3.27164,-3.0270246 0.66367,-0.4796297 0.85476,-1.5283434 0.5671,-2.2501026 z"
           id="path2162"
           inkscape:connector-curvature="0" />
      </g>
    </g>
  </g>
</svg>
