<?xml version="1.0" encoding="UTF-8" standalone="no"?>
<svg
   xmlns:dc="http://purl.org/dc/elements/1.1/"
   xmlns:cc="http://creativecommons.org/ns#"
   xmlns:rdf="http://www.w3.org/1999/02/22-rdf-syntax-ns#"
   xmlns:svg="http://www.w3.org/2000/svg"
   xmlns="http://www.w3.org/2000/svg"
   xmlns:sodipodi="http://sodipodi.sourceforge.net/DTD/sodipodi-0.dtd"
   xmlns:inkscape="http://www.inkscape.org/namespaces/inkscape"
   version="1.1"
   viewBox="0 0 27.338061 20.124887"
   id="svg2"
   xml:space="preserve"
   sodipodi:docname="link.svg"
   width="27.33806"
   height="20.124887"
   inkscape:version="0.92.4 (5da689c313, 2019-01-14)"><metadata
     id="metadata15"><rdf:RDF><cc:Work
         rdf:about=""><dc:format>image/svg+xml</dc:format><dc:type
           rdf:resource="http://purl.org/dc/dcmitype/StillImage" /><dc:title></dc:title></cc:Work></rdf:RDF></metadata><sodipodi:namedview
     pagecolor="#ffffff"
     bordercolor="#666666"
     borderopacity="1"
     objecttolerance="10"
     gridtolerance="10"
     guidetolerance="10"
     inkscape:pageopacity="0"
     inkscape:pageshadow="2"
     inkscape:window-width="2560"
     inkscape:window-height="1027"
     id="namedview13"
     showgrid="false"
     fit-margin-top="0"
     fit-margin-left="0"
     fit-margin-right="0"
     fit-margin-bottom="0"
     inkscape:zoom="14.052817"
     inkscape:cx="27.749123"
     inkscape:cy="12.730049"
     inkscape:window-x="-8"
     inkscape:window-y="-8"
     inkscape:window-maximized="1"
     inkscape:current-layer="svg2" /><defs
     id="defs6"><clipPath
       id="clipPath18"><path
         d="M 0,38 H 38 V 0 H 0 Z"
         id="path20"
         inkscape:connector-curvature="0" /></clipPath></defs><g
     id="g29"
     transform="translate(0.28884736,0.22042239)"><rect
       ry="0"
       rx="0"
       y="0.25753137"
       x="0.1891064"
       height="19.16898"
       width="26.382153"
       id="rect17"
       style="fill:#ffffff;stroke:#ffffff;stroke-width:0.95590752" /><g
       style="fill:#00aad4"
       id="g12"
       transform="matrix(0.64572098,0.20097117,0.20185449,-0.64855911,-2.673611,18.361797)"><g
         style="fill:#00aad4"
         id="g14"><g
           style="fill:#00aad4"
           id="g16"
           clip-path="url(#clipPath18)"><g
             style="fill:#00aad4"
             id="g22"
             transform="translate(16,28)"><path
               inkscape:connector-curvature="0"
               style="fill:#00aad4;fill-opacity:1;fill-rule:nonzero;stroke:none"
               id="path24"
               d="m 0,0 6,6 c 0,0 6,6 12,0 6,-6 0,-12 0,-12 l -8,-8 c 0,0 -6,-6 -12,0 -1.125,1.125 -1.822,2.62 -1.822,2.62 l 3.353,3.348 c 0,0 -0.135,-1.364 1.469,-2.968 0,0 3,-3 6,0 l 8,8 c 0,0 3,3 0,6 C 12,6 9,3 9,3 L 5.271,-0.729 c 0,0 -1.854,1.521 -5.646,0.354 z" /></g><g
             style="fill:#00aad4"
             id="g26"
             transform="translate(21.8447,10)"><path
               inkscape:connector-curvature="0"
               style="fill:#00aad4;fill-opacity:1;fill-rule:nonzero;stroke:none"
               id="path28"
               d="m 0,0 -6,-6 c 0,0 -6,-6 -12,0 -6,6 0,12 0,12 l 8,8 c 0,0 6,6 12,0 1.125,-1.125 1.822,-2.62 1.822,-2.62 L 0.469,8.031 c 0,0 0.135,1.365 -1.469,2.969 0,0 -3,3 -6,0 l -8,-8 c 0,0 -3,-3 0,-6 3,-3 6,0 6,0 l 3.729,3.729 c 0,0 1.854,-1.52 5.646,-0.354 z" /></g></g></g></g></g></svg>